<svg width="1180" height="104" viewBox="0 0 1180 104" fill="none" xmlns="http://www.w3.org/2000/svg">
<path d="M42.345 103.224C33.8197 103.224 26.499 101.788 20.383 98.915C14.267 96.0423 9.49467 92.0113 6.066 86.822C2.63733 81.6327 0.691334 75.5167 0.228 68.474L21.495 67.501C22.051 71.393 23.163 74.729 24.831 77.509C26.5917 80.1963 28.9083 82.235 31.781 83.625C34.7463 85.015 38.3603 85.71 42.623 85.71C46.1443 85.71 49.1097 85.293 51.519 84.459C54.021 83.625 55.9207 82.374 57.218 80.706C58.5153 78.9453 59.164 76.814 59.164 74.312C59.164 71.9953 58.608 70.003 57.496 68.335C56.384 66.5743 54.2527 64.999 51.102 63.609C47.9513 62.1263 43.318 60.69 37.202 59.3C28.7693 57.354 21.9583 55.1763 16.769 52.767C11.6723 50.3577 7.96567 47.346 5.649 43.732C3.33233 40.0253 2.174 35.392 2.174 29.832C2.174 23.9013 3.61033 18.712 6.483 14.264C9.44833 9.81599 13.711 6.34099 19.271 3.83899C24.831 1.337 31.4567 0.0859985 39.148 0.0859985C47.3027 0.0859985 54.2063 1.52233 59.859 4.39499C65.5117 7.26766 69.9133 11.206 73.064 16.21C76.3073 21.214 78.2533 26.9593 78.902 33.446L57.774 34.558C57.496 31.1293 56.5693 28.164 54.994 25.662C53.4187 23.0673 51.2873 21.075 48.6 19.685C45.9127 18.295 42.6693 17.6 38.87 17.6C34.0513 17.6 30.252 18.6657 27.472 20.797C24.7847 22.9283 23.441 25.7083 23.441 29.137C23.441 31.5463 24.0433 33.585 25.248 35.253C26.5453 36.8283 28.6303 38.2183 31.503 39.423C34.4683 40.6277 38.6383 41.786 44.013 42.898C53.187 44.7513 60.415 47.1143 65.697 49.987C71.0717 52.767 74.871 56.103 77.095 59.995C79.319 63.887 80.431 68.335 80.431 73.339C80.431 79.455 78.8557 84.7833 75.705 89.324C72.647 93.772 68.2453 97.2007 62.5 99.61C56.8473 102.019 50.129 103.224 42.345 103.224ZM136.957 103.224C127.969 103.224 119.953 101.185 112.91 97.108C105.96 93.0307 100.493 87.1463 96.5083 79.455C92.6163 71.7637 90.6703 62.5433 90.6703 51.794C90.6703 41.3227 92.57 32.2413 96.3693 24.55C100.169 16.766 105.59 10.7427 112.632 6.48C119.675 2.21733 127.922 0.0859985 137.374 0.0859985C150.255 0.0859985 160.263 3.283 167.398 9.677C174.626 15.9783 179.26 25.0133 181.298 36.782L159.336 37.616C158.224 31.4073 155.815 26.5887 152.108 23.16C148.402 19.6387 143.49 17.878 137.374 17.878C132.092 17.878 127.598 19.268 123.891 22.048C120.185 24.828 117.358 28.7663 115.412 33.863C113.466 38.9597 112.493 44.9367 112.493 51.794C112.493 58.744 113.466 64.7673 115.412 69.864C117.451 74.868 120.324 78.7137 124.03 81.401C127.737 84.0883 132.139 85.432 137.235 85.432C143.907 85.432 149.05 83.5787 152.664 79.872C156.371 76.0727 158.688 70.837 159.614 64.165L181.715 64.999C180.418 73.061 177.87 79.9183 174.07 85.571C170.271 91.2237 165.267 95.579 159.058 98.637C152.942 101.695 145.575 103.224 136.957 103.224ZM192.788 101V2.30999H236.017C243.245 2.30999 249.5 3.51466 254.782 5.924C260.156 8.33333 264.28 11.762 267.153 16.21C270.025 20.5653 271.462 25.7547 271.462 31.778C271.462 36.3187 270.489 40.3497 268.543 43.871C266.689 47.3923 264.095 50.265 260.759 52.489C257.515 54.713 253.762 56.103 249.5 56.659L249.083 55.408C255.662 55.408 260.666 56.8443 264.095 59.717C267.523 62.497 269.469 66.806 269.933 72.644L272.435 101H250.89L249.083 75.98C248.805 72.1807 247.6 69.4007 245.469 67.64C243.43 65.7867 239.909 64.86 234.905 64.86H213.916V101H192.788ZM213.916 47.207H233.654C238.75 47.207 242.689 46.0487 245.469 43.732C248.341 41.3227 249.778 37.9403 249.778 33.585C249.778 29.137 248.341 25.801 245.469 23.577C242.596 21.2603 238.426 20.102 232.959 20.102H213.916V47.207ZM286.927 101V2.30999H308.055V101H286.927ZM323.92 101V2.30999H363.396C375.257 2.30999 384.524 5.18266 391.196 10.928C397.961 16.6733 401.343 24.55 401.343 34.558C401.343 41.1373 399.814 46.8827 396.756 51.794C393.791 56.6127 389.435 60.3657 383.69 63.053C378.037 65.6477 371.273 66.945 363.396 66.945H345.048V101H323.92ZM345.048 49.153H362.145C367.705 49.153 372.014 47.9483 375.072 45.539C378.13 43.037 379.659 39.3767 379.659 34.558C379.659 29.832 378.13 26.2643 375.072 23.855C372.107 21.353 367.798 20.102 362.145 20.102H345.048V49.153ZM435.242 101V20.102H405.774V2.30999H486.116V20.102H456.509V101H435.242ZM492.381 101V2.30999H513.509V101H492.381ZM529.374 101V2.30999H552.726L591.924 70.42V2.30999H613.052V101H589.422L550.502 35.253V101H529.374ZM669.816 103.224C660.271 103.224 652.117 101.046 645.352 96.691C638.587 92.3357 633.352 86.3123 629.645 78.621C626.031 70.837 624.224 61.8947 624.224 51.794C624.224 41.8787 626.077 33.029 629.784 25.245C633.491 17.461 638.819 11.345 645.769 6.89699C652.812 2.35633 661.244 0.0859985 671.067 0.0859985C679.592 0.0859985 686.774 1.52233 692.612 4.39499C698.543 7.175 703.269 11.1597 706.79 16.349C710.311 21.5383 712.767 27.6543 714.157 34.697L692.334 35.67C691.315 30.2027 689.137 25.8937 685.801 22.743C682.558 19.4997 677.693 17.878 671.206 17.878C665.553 17.878 660.827 19.3607 657.028 22.326C653.321 25.2913 650.541 29.3223 648.688 34.419C646.927 39.5157 646.047 45.3073 646.047 51.794C646.047 58.3733 646.927 64.2113 648.688 69.308C650.541 74.312 653.321 78.2503 657.028 81.123C660.827 83.9957 665.692 85.432 671.623 85.432C675.978 85.432 679.731 84.5517 682.882 82.791C686.125 81.0303 688.627 78.621 690.388 75.563C692.241 72.505 693.353 69.03 693.724 65.138H671.206V49.709H714.435V101H701.369L700.257 79.872L702.759 80.984C701.832 85.3393 699.794 89.185 696.643 92.521C693.492 95.857 689.6 98.498 684.967 100.444C680.426 102.297 675.376 103.224 669.816 103.224ZM728.513 101V2.30999H767.989C779.85 2.30999 789.117 5.18266 795.789 10.928C802.554 16.6733 805.936 24.55 805.936 34.558C805.936 41.1373 804.407 46.8827 801.349 51.794C798.384 56.6127 794.028 60.3657 788.283 63.053C782.63 65.6477 775.866 66.945 767.989 66.945H749.641V101H728.513ZM749.641 49.153H766.738C772.298 49.153 776.607 47.9483 779.665 45.539C782.723 43.037 784.252 39.3767 784.252 34.558C784.252 29.832 782.723 26.2643 779.665 23.855C776.7 21.353 772.391 20.102 766.738 20.102H749.641V49.153ZM816.409 101V2.30999H837.537V101H816.409ZM845.326 101L878.825 51.516L845.604 2.30999H870.068L891.613 35.531L912.602 2.30999H937.205L903.984 51.238L937.622 101H913.019L891.335 67.223L869.929 101H845.326ZM945.505 101V2.30999H1014.17V20.102H966.633V42.759H1012.5V60.273H966.633V83.208H1015.28V101H945.505ZM1029.19 101V2.30999H1050.32V95.301L1038.64 83.208H1095.77V101H1029.19ZM1141.22 103.224C1132.69 103.224 1125.37 101.788 1119.25 98.915C1113.14 96.0423 1108.37 92.0113 1104.94 86.822C1101.51 81.6327 1099.56 75.5167 1099.1 68.474L1120.37 67.501C1120.92 71.393 1122.03 74.729 1123.7 77.509C1125.46 80.1963 1127.78 82.235 1130.65 83.625C1133.62 85.015 1137.23 85.71 1141.49 85.71C1145.02 85.71 1147.98 85.293 1150.39 84.459C1152.89 83.625 1154.79 82.374 1156.09 80.706C1157.39 78.9453 1158.03 76.814 1158.03 74.312C1158.03 71.9953 1157.48 70.003 1156.37 68.335C1155.25 66.5743 1153.12 64.999 1149.97 63.609C1146.82 62.1263 1142.19 60.69 1136.07 59.3C1127.64 57.354 1120.83 55.1763 1115.64 52.767C1110.54 50.3577 1106.84 47.346 1104.52 43.732C1102.2 40.0253 1101.04 35.392 1101.04 29.832C1101.04 23.9013 1102.48 18.712 1105.35 14.264C1108.32 9.81599 1112.58 6.34099 1118.14 3.83899C1123.7 1.337 1130.33 0.0859985 1138.02 0.0859985C1146.17 0.0859985 1153.08 1.52233 1158.73 4.39499C1164.38 7.26766 1168.78 11.206 1171.93 16.21C1175.18 21.214 1177.12 26.9593 1177.77 33.446L1156.64 34.558C1156.37 31.1293 1155.44 28.164 1153.86 25.662C1152.29 23.0673 1150.16 21.075 1147.47 19.685C1144.78 18.295 1141.54 17.6 1137.74 17.6C1132.92 17.6 1129.12 18.6657 1126.34 20.797C1123.66 22.9283 1122.31 25.7083 1122.31 29.137C1122.31 31.5463 1122.91 33.585 1124.12 35.253C1125.42 36.8283 1127.5 38.2183 1130.37 39.423C1133.34 40.6277 1137.51 41.786 1142.88 42.898C1152.06 44.7513 1159.29 47.1143 1164.57 49.987C1169.94 52.767 1173.74 56.103 1175.97 59.995C1178.19 63.887 1179.3 68.335 1179.3 73.339C1179.3 79.455 1177.73 84.7833 1174.58 89.324C1171.52 93.772 1167.12 97.2007 1161.37 99.61C1155.72 102.019 1149 103.224 1141.22 103.224Z" fill="white"/>
</svg>
