<svg width="30" height="30" viewBox="0 0 30 30" fill="none" xmlns="http://www.w3.org/2000/svg">
<rect width="30" height="30" rx="6" fill="white"/>
<path d="M12 8.25H11.25C10.8522 8.25 10.4706 8.40804 10.1893 8.68934C9.90804 8.97064 9.75 9.35218 9.75 9.75V13.5C9.75 13.8978 9.59196 14.2794 9.31066 14.5607C9.02936 14.842 8.64782 15 8.25 15C8.64782 15 9.02936 15.158 9.31066 15.4393C9.59196 15.7206 9.75 16.1022 9.75 16.5V20.25C9.75 21.075 10.425 21.75 11.25 21.75H12M18 21.75H18.75C19.1478 21.75 19.5294 21.592 19.8107 21.3107C20.092 21.0294 20.25 20.6478 20.25 20.25V16.5C20.25 15.675 20.925 15 21.75 15C21.3522 15 20.9706 14.842 20.6893 14.5607C20.408 14.2794 20.25 13.8978 20.25 13.5V9.75C20.25 9.35218 20.092 8.97064 19.8107 8.68934C19.5294 8.40804 19.1478 8.25 18.75 8.25H18" stroke="#181D27" stroke-width="2" stroke-linecap="round" stroke-linejoin="round"/>
</svg>
