<svg width="152" height="30" viewBox="0 0 152 30" fill="none" xmlns="http://www.w3.org/2000/svg">
<rect width="30" height="30" rx="6" fill="#181D27"/>
<path d="M12 8.25H11.25C10.8522 8.25 10.4706 8.40804 10.1893 8.68934C9.90804 8.97064 9.75 9.35218 9.75 9.75V13.5C9.75 13.8978 9.59196 14.2794 9.31066 14.5607C9.02936 14.842 8.64782 15 8.25 15C8.64782 15 9.02936 15.158 9.31066 15.4393C9.59196 15.7206 9.75 16.1022 9.75 16.5V20.25C9.75 21.075 10.425 21.75 11.25 21.75H12M18 21.75H18.75C19.1478 21.75 19.5294 21.592 19.8107 21.3107C20.092 21.0294 20.25 20.6478 20.25 20.25V16.5C20.25 15.675 20.925 15 21.75 15C21.3522 15 20.9706 14.842 20.6893 14.5607C20.408 14.2794 20.25 13.8978 20.25 13.5V9.75C20.25 9.35218 20.092 8.97064 19.8107 8.68934C19.5294 8.40804 19.1478 8.25 18.75 8.25H18" stroke="white" stroke-width="2" stroke-linecap="round" stroke-linejoin="round"/>
<path d="M44.6037 12.9578L42.1108 13.1112C42.0682 12.8981 41.9766 12.7063 41.8359 12.5359C41.6953 12.3612 41.5099 12.2227 41.2798 12.1204C41.054 12.0139 40.7834 11.9606 40.468 11.9606C40.0462 11.9606 39.6903 12.0501 39.4006 12.2291C39.1108 12.4038 38.9659 12.6382 38.9659 12.9322C38.9659 13.1666 39.0597 13.3647 39.2472 13.5267C39.4347 13.6886 39.7564 13.8186 40.2124 13.9166L41.9893 14.2745C42.9439 14.4705 43.6555 14.7859 44.1243 15.2205C44.593 15.6552 44.8274 16.2262 44.8274 16.9336C44.8274 17.5771 44.6378 18.1417 44.2585 18.6275C43.8835 19.1133 43.3679 19.4926 42.7116 19.7653C42.0597 20.0338 41.3075 20.168 40.4553 20.168C39.1555 20.168 38.12 19.8974 37.3487 19.3562C36.5817 18.8107 36.1321 18.0693 36 17.1318L38.6783 16.9911C38.7592 17.3875 38.9553 17.69 39.2663 17.8988C39.5774 18.1034 39.9759 18.2056 40.4616 18.2056C40.9389 18.2056 41.3224 18.114 41.6122 17.9308C41.9063 17.7433 42.0554 17.5025 42.0597 17.2085C42.0554 16.9613 41.951 16.7589 41.7464 16.6012C41.5419 16.4393 41.2266 16.3157 40.8004 16.2305L39.1001 15.8917C38.1413 15.7 37.4276 15.3676 36.9588 14.8946C36.4943 14.4215 36.2621 13.8186 36.2621 13.0856C36.2621 12.4549 36.4325 11.9116 36.7734 11.4556C37.1186 10.9997 37.6023 10.6481 38.2244 10.4009C38.8509 10.1538 39.5838 10.0302 40.4233 10.0302C41.6634 10.0302 42.6392 10.2923 43.3509 10.8164C44.0668 11.3406 44.4844 12.0544 44.6037 12.9578Z" fill="#181D27"/>
<path d="M49.8982 20.168C48.8925 20.168 48.0274 19.9549 47.303 19.5288C46.5828 19.0984 46.0288 18.5018 45.6411 17.739C45.2575 16.9762 45.0658 16.0984 45.0658 15.1055C45.0658 14.0998 45.2597 13.2177 45.6475 12.4592C46.0395 11.6964 46.5956 11.1019 47.3158 10.6758C48.0359 10.2454 48.8925 10.0302 49.8854 10.0302C50.7419 10.0302 51.4919 10.1857 52.1354 10.4968C52.7788 10.8079 53.2881 11.2447 53.6631 11.8072C54.0381 12.3697 54.2448 13.0302 54.2831 13.7887H51.7135C51.6411 13.2987 51.4493 12.9045 51.1382 12.6062C50.8314 12.3036 50.4287 12.1524 49.9301 12.1524C49.5082 12.1524 49.1396 12.2674 48.8243 12.4975C48.5132 12.7234 48.2703 13.0536 48.0956 13.4883C47.9209 13.923 47.8335 14.4492 47.8335 15.0671C47.8335 15.6936 47.9188 16.2262 48.0892 16.6652C48.2639 17.1041 48.509 17.4386 48.8243 17.6687C49.1396 17.8988 49.5082 18.0139 49.9301 18.0139C50.2412 18.0139 50.5203 17.95 50.7675 17.8221C51.0189 17.6943 51.2256 17.5089 51.3875 17.266C51.5537 17.0188 51.6624 16.7227 51.7135 16.3775H54.2831C54.2405 17.1275 54.0359 17.788 53.6695 18.359C53.3073 18.9258 52.8065 19.369 52.1673 19.6886C51.5281 20.0082 50.7717 20.168 49.8982 20.168Z" fill="#181D27"/>
<path d="M54.9465 19.9762V10.158H57.5864V11.8711H57.6887C57.8677 11.2617 58.1681 10.8015 58.59 10.4904C59.0119 10.1751 59.4977 10.0174 60.0474 10.0174C60.1838 10.0174 60.3308 10.0259 60.4884 10.043C60.6461 10.06 60.7846 10.0835 60.9039 10.1133V12.5295C60.7761 12.4911 60.5992 12.4571 60.3734 12.4272C60.1475 12.3974 59.9409 12.3825 59.7534 12.3825C59.3528 12.3825 58.9948 12.4698 58.6795 12.6446C58.3684 12.815 58.1212 13.0536 57.938 13.3605C57.759 13.6673 57.6695 14.021 57.6695 14.4215V19.9762H54.9465Z" fill="#181D27"/>
<path d="M61.2318 19.9762V10.158H63.9548V19.9762H61.2318ZM62.5997 8.89242C62.1948 8.89242 61.8475 8.75819 61.5578 8.48972C61.2723 8.217 61.1295 7.891 61.1295 7.51174C61.1295 7.13674 61.2723 6.81501 61.5578 6.54654C61.8475 6.27382 62.1948 6.13745 62.5997 6.13745C63.0045 6.13745 63.3497 6.27382 63.6352 6.54654C63.925 6.81501 64.0698 7.13674 64.0698 7.51174C64.0698 7.891 63.925 8.217 63.6352 8.48972C63.3497 8.75819 63.0045 8.89242 62.5997 8.89242Z" fill="#181D27"/>
<path d="M65.0561 23.658V10.158H67.7407V11.8072H67.8622C67.9815 11.543 68.1541 11.2745 68.3799 11.0018C68.61 10.7248 68.9083 10.4947 69.2748 10.3115C69.6456 10.124 70.1058 10.0302 70.6555 10.0302C71.3714 10.0302 72.0319 10.2177 72.637 10.5927C73.2421 10.9634 73.7258 11.5238 74.088 12.2738C74.4502 13.0196 74.6314 13.9549 74.6314 15.0799C74.6314 16.1751 74.4545 17.0998 74.1008 17.8541C73.7514 18.6041 73.2741 19.173 72.669 19.5607C72.0681 19.9443 71.3948 20.136 70.6491 20.136C70.1207 20.136 69.6711 20.0487 69.3004 19.874C68.9339 19.6992 68.6335 19.4798 68.3991 19.2156C68.1647 18.9471 67.9858 18.6765 67.8622 18.4038H67.7791V23.658H65.0561ZM67.7215 15.0671C67.7215 15.6509 67.8025 16.1602 67.9644 16.5948C68.1264 17.0295 68.3608 17.3683 68.6676 17.6112C68.9744 17.8498 69.3473 17.9691 69.7862 17.9691C70.2294 17.9691 70.6044 17.8477 70.9112 17.6048C71.218 17.3576 71.4502 17.0167 71.6079 16.5821C71.7698 16.1431 71.8508 15.6382 71.8508 15.0671C71.8508 14.5004 71.772 14.0018 71.6143 13.5714C71.4566 13.141 71.2244 12.8044 70.9176 12.5615C70.6108 12.3186 70.2336 12.1971 69.7862 12.1971C69.343 12.1971 68.968 12.3143 68.6612 12.5487C68.3586 12.783 68.1264 13.1154 67.9644 13.5458C67.8025 13.9762 67.7215 14.4833 67.7215 15.0671Z" fill="#181D27"/>
<path d="M80.589 10.158V12.2035H74.6763V10.158H80.589ZM76.0187 7.80578H78.7417V16.9592C78.7417 17.2106 78.78 17.4066 78.8567 17.5473C78.9335 17.6836 79.04 17.7795 79.1763 17.8349C79.317 17.8903 79.4789 17.918 79.6621 17.918C79.79 17.918 79.9178 17.9073 80.0457 17.886C80.1735 17.8605 80.2715 17.8413 80.3397 17.8285L80.768 19.8548C80.6316 19.8974 80.4398 19.9464 80.1927 20.0018C79.9455 20.0615 79.6451 20.0977 79.2914 20.1105C78.6352 20.136 78.0599 20.0487 77.5656 19.8484C77.0755 19.6481 76.6941 19.337 76.4214 18.9152C76.1486 18.4933 76.0144 17.9606 76.0187 17.3171V7.80578Z" fill="#181D27"/>
<path d="M81.2828 19.9762V10.158H84.0058V19.9762H81.2828ZM82.6507 8.89242C82.2459 8.89242 81.8986 8.75819 81.6088 8.48972C81.3233 8.217 81.1805 7.891 81.1805 7.51174C81.1805 7.13674 81.3233 6.81501 81.6088 6.54654C81.8986 6.27382 82.2459 6.13745 82.6507 6.13745C83.0555 6.13745 83.4007 6.27382 83.6862 6.54654C83.976 6.81501 84.1209 7.13674 84.1209 7.51174C84.1209 7.891 83.976 8.217 83.6862 8.48972C83.4007 8.75819 83.0555 8.89242 82.6507 8.89242Z" fill="#181D27"/>
<path d="M87.8301 14.3001V19.9762H85.1071V10.158H87.7023V11.8903H87.8173C88.0346 11.3193 88.399 10.8676 88.9103 10.5352C89.4217 10.1985 90.0417 10.0302 90.7704 10.0302C91.4522 10.0302 92.0467 10.1794 92.5538 10.4777C93.0609 10.7759 93.4551 11.2021 93.7363 11.7561C94.0176 12.3058 94.1582 12.962 94.1582 13.7248V19.9762H91.4352V14.2106C91.4395 13.6098 91.2861 13.141 90.975 12.8044C90.6639 12.4634 90.2356 12.293 89.6902 12.293C89.3237 12.293 88.9998 12.3718 88.7186 12.5295C88.4416 12.6872 88.2243 12.9173 88.0666 13.2198C87.9132 13.5181 87.8344 13.8782 87.8301 14.3001Z" fill="#181D27"/>
<path d="M99.6476 23.8626C98.7655 23.8626 98.0091 23.7411 97.3785 23.4982C96.752 23.2596 96.2535 22.9336 95.8827 22.5203C95.512 22.1069 95.2712 21.6424 95.1604 21.1268L97.6789 20.788C97.7556 20.984 97.877 21.1673 98.0432 21.3377C98.2094 21.5082 98.4289 21.6446 98.7016 21.7468C98.9786 21.8534 99.3153 21.9066 99.7116 21.9066C100.304 21.9066 100.792 21.7617 101.175 21.472C101.563 21.1865 101.757 20.7071 101.757 20.0338V18.2376H101.642C101.523 18.5103 101.344 18.7681 101.105 19.011C100.866 19.2539 100.56 19.4521 100.185 19.6055C99.8096 19.7589 99.3621 19.8356 98.8422 19.8356C98.105 19.8356 97.4339 19.6652 96.8288 19.3242C96.2279 18.9791 95.7485 18.4528 95.3905 17.7454C95.0368 17.0338 94.86 16.1346 94.86 15.048C94.86 13.9357 95.0411 13.0068 95.4033 12.261C95.7655 11.5153 96.2471 10.9571 96.8479 10.5863C97.453 10.2156 98.1157 10.0302 98.8359 10.0302C99.3856 10.0302 99.8458 10.124 100.217 10.3115C100.587 10.4947 100.886 10.7248 101.111 11.0018C101.342 11.2745 101.518 11.543 101.642 11.8072H101.744V10.158H104.448V20.0721C104.448 20.9073 104.244 21.6062 103.834 22.1687C103.425 22.7312 102.859 23.1531 102.134 23.4343C101.414 23.7198 100.585 23.8626 99.6476 23.8626ZM99.7052 17.7902C100.144 17.7902 100.515 17.6815 100.817 17.4642C101.124 17.2426 101.359 16.9272 101.521 16.5181C101.687 16.1048 101.77 15.6105 101.77 15.0352C101.77 14.4599 101.689 13.9613 101.527 13.5394C101.365 13.1133 101.131 12.783 100.824 12.5487C100.517 12.3143 100.144 12.1971 99.7052 12.1971C99.2577 12.1971 98.8806 12.3186 98.5738 12.5615C98.267 12.8001 98.0347 13.1325 97.877 13.5586C97.7194 13.9848 97.6405 14.4769 97.6405 15.0352C97.6405 15.6019 97.7194 16.092 97.877 16.5053C98.039 16.9144 98.2712 17.2319 98.5738 17.4578C98.8806 17.6794 99.2577 17.7902 99.7052 17.7902Z" fill="#181D27"/>
<path d="M105.535 23.658V10.158H108.22V11.8072H108.341C108.46 11.543 108.633 11.2745 108.859 11.0018C109.089 10.7248 109.387 10.4947 109.754 10.3115C110.124 10.124 110.585 10.0302 111.134 10.0302C111.85 10.0302 112.511 10.2177 113.116 10.5927C113.721 10.9634 114.205 11.5238 114.567 12.2738C114.929 13.0196 115.11 13.9549 115.11 15.0799C115.11 16.1751 114.933 17.0998 114.58 17.8541C114.23 18.6041 113.753 19.173 113.148 19.5607C112.547 19.9443 111.874 20.136 111.128 20.136C110.6 20.136 110.15 20.0487 109.779 19.874C109.413 19.6992 109.112 19.4798 108.878 19.2156C108.644 18.9471 108.465 18.6765 108.341 18.4038H108.258V23.658H105.535ZM108.2 15.0671C108.2 15.6509 108.281 16.1602 108.443 16.5948C108.605 17.0295 108.84 17.3683 109.146 17.6112C109.453 17.8498 109.826 17.9691 110.265 17.9691C110.708 17.9691 111.083 17.8477 111.39 17.6048C111.697 17.3576 111.929 17.0167 112.087 16.5821C112.249 16.1431 112.33 15.6382 112.33 15.0671C112.33 14.5004 112.251 14.0018 112.093 13.5714C111.936 13.141 111.703 12.8044 111.396 12.5615C111.09 12.3186 110.713 12.1971 110.265 12.1971C109.822 12.1971 109.447 12.3143 109.14 12.5487C108.838 12.783 108.605 13.1154 108.443 13.5458C108.281 13.9762 108.2 14.4833 108.2 15.0671Z" fill="#181D27"/>
<path d="M115.846 19.9762V10.158H118.569V19.9762H115.846ZM117.213 8.89242C116.809 8.89242 116.461 8.75819 116.172 8.48972C115.886 8.217 115.743 7.891 115.743 7.51174C115.743 7.13674 115.886 6.81501 116.172 6.54654C116.461 6.27382 116.809 6.13745 117.213 6.13745C117.618 6.13745 117.963 6.27382 118.249 6.54654C118.539 6.81501 118.684 7.13674 118.684 7.51174C118.684 7.891 118.539 8.217 118.249 8.48972C117.963 8.75819 117.618 8.89242 117.213 8.89242Z" fill="#181D27"/>
<path d="M121.945 10.158L123.748 13.5906L125.595 10.158H128.389L125.544 15.0671L128.465 19.9762H125.685L123.748 16.5821L121.843 19.9762H119.031L121.945 15.0671L119.133 10.158H121.945Z" fill="#181D27"/>
<path d="M133.049 20.168C132.039 20.168 131.169 19.9634 130.441 19.5544C129.716 19.141 129.158 18.5572 128.766 17.8029C128.374 17.0444 128.178 16.1474 128.178 15.1119C128.178 14.1019 128.374 13.2156 128.766 12.4528C129.158 11.69 129.71 11.0955 130.422 10.6694C131.137 10.2433 131.977 10.0302 132.94 10.0302C133.588 10.0302 134.191 10.1346 134.749 10.3434C135.311 10.548 135.802 10.8569 136.219 11.2703C136.641 11.6836 136.969 12.2035 137.204 12.8299C137.438 13.4521 137.555 14.1808 137.555 15.016V15.7639H129.265V14.0764H134.992C134.992 13.6843 134.907 13.337 134.736 13.0345C134.566 12.7319 134.329 12.4954 134.027 12.325C133.728 12.1502 133.381 12.0629 132.985 12.0629C132.571 12.0629 132.205 12.1588 131.885 12.3505C131.57 12.538 131.323 12.7916 131.144 13.1112C130.965 13.4265 130.873 13.7781 130.869 14.1659V15.7703C130.869 16.2561 130.959 16.6758 131.137 17.0295C131.321 17.3832 131.579 17.6559 131.911 17.8477C132.243 18.0394 132.637 18.1353 133.093 18.1353C133.396 18.1353 133.673 18.0927 133.924 18.0075C134.176 17.9223 134.391 17.7944 134.57 17.624C134.749 17.4535 134.885 17.2447 134.979 16.9975L137.498 17.1637C137.37 17.7688 137.108 18.2973 136.711 18.749C136.319 19.1964 135.812 19.5458 135.19 19.7973C134.572 20.0444 133.858 20.168 133.049 20.168Z" fill="#181D27"/>
<path d="M140.975 6.88532V19.9762H138.252V6.88532H140.975Z" fill="#181D27"/>
<path d="M150.245 12.9578L147.753 13.1112C147.71 12.8981 147.618 12.7063 147.478 12.5359C147.337 12.3612 147.152 12.2227 146.922 12.1204C146.696 12.0139 146.425 11.9606 146.11 11.9606C145.688 11.9606 145.332 12.0501 145.042 12.2291C144.753 12.4038 144.608 12.6382 144.608 12.9322C144.608 13.1666 144.701 13.3647 144.889 13.5267C145.076 13.6886 145.398 13.8186 145.854 13.9166L147.631 14.2745C148.586 14.4705 149.297 14.7859 149.766 15.2205C150.235 15.6552 150.469 16.2262 150.469 16.9336C150.469 17.5771 150.279 18.1417 149.9 18.6275C149.525 19.1133 149.01 19.4926 148.353 19.7653C147.701 20.0338 146.949 20.168 146.097 20.168C144.797 20.168 143.762 19.8974 142.99 19.3562C142.223 18.8107 141.774 18.0693 141.642 17.1318L144.32 16.9911C144.401 17.3875 144.597 17.69 144.908 17.8988C145.219 18.1034 145.618 18.2056 146.103 18.2056C146.581 18.2056 146.964 18.114 147.254 17.9308C147.548 17.7433 147.697 17.5025 147.701 17.2085C147.697 16.9613 147.593 16.7589 147.388 16.6012C147.184 16.4393 146.868 16.3157 146.442 16.2305L144.742 15.8917C143.783 15.7 143.069 15.3676 142.601 14.8946C142.136 14.4215 141.904 13.8186 141.904 13.0856C141.904 12.4549 142.074 11.9116 142.415 11.4556C142.76 10.9997 143.244 10.6481 143.866 10.4009C144.493 10.1538 145.226 10.0302 146.065 10.0302C147.305 10.0302 148.281 10.2923 148.993 10.8164C149.708 11.3406 150.126 12.0544 150.245 12.9578Z" fill="#181D27"/>
</svg>
